<svg width="157" height="234" viewBox="0 0 157 234" fill="none" xmlns="http://www.w3.org/2000/svg">
<path d="M60.5574 24.3376C60.6238 16.7832 65.1961 12.977 70.7699 15.8363L117.751 39.9373C123.324 42.7966 127.789 51.2386 127.723 58.7931L126.495 198.409C126.429 205.963 121.857 209.77 116.283 206.91L69.3019 182.809C63.7281 179.95 59.2635 171.508 59.33 163.953L60.5574 24.3376Z" fill="url(#paint0_linear)"/>
<path fill-rule="evenodd" clip-rule="evenodd" d="M80.1767 97.9994C80.1904 98.4198 80.4514 98.7251 80.7598 98.6815L82.3649 98.4542C82.6447 98.4146 82.9005 98.6259 82.9978 98.977L83.3784 100.35C83.5465 100.956 83.1735 101.629 82.6935 101.585L79.2359 101.269C78.9711 101.245 78.7294 101.521 78.696 101.885C78.6626 102.25 78.8502 102.565 79.1151 102.59L83.7386 103.013C83.9769 103.035 84.1788 103.237 84.2622 103.538L84.5148 104.449C84.6829 105.056 84.3099 105.729 83.8299 105.685L83.3489 105.641C83.0841 105.616 82.8423 105.892 82.809 106.257C82.7756 106.622 82.9632 106.937 83.2281 106.961L84.8749 107.112C85.1133 107.134 85.3151 107.336 85.3986 107.638L85.8405 109.232C86.0087 109.838 85.6357 110.511 85.1557 110.467L82.1267 110.19C81.8618 110.166 81.6201 110.442 81.5867 110.806C81.5533 111.171 81.7409 111.486 82.0058 111.511L86.2007 111.895C86.4391 111.916 86.6409 112.119 86.7244 112.42L86.9464 113.221C87.1654 114.011 87.7409 114.486 88.3704 114.397L98.7303 112.93C99.3854 112.838 99.9394 112.157 100.081 111.27L101.957 99.5547C102.055 98.945 101.942 98.3244 101.652 97.8757C101.362 97.427 100.928 97.2014 100.477 97.2652L88.2467 98.9968C87.8912 99.0472 87.6158 99.4809 87.6316 99.9657L87.7032 102.16C87.719 102.645 88.0201 102.997 88.3756 102.946L97.8769 101.601C98.3004 101.541 98.6265 102.046 98.5347 102.619L98.2108 104.642C98.1388 105.091 97.8312 105.412 97.5011 105.382L92.9207 104.963C92.6559 104.939 92.4141 105.215 92.3808 105.579C92.3474 105.944 92.535 106.259 92.7999 106.284L97.1719 106.684C97.5484 106.718 97.8026 107.191 97.7204 107.704L97.5978 108.47C97.5347 108.864 97.2885 109.167 96.9973 109.208L89.7676 110.231C89.4878 110.271 89.232 110.06 89.1347 109.709L85.1861 95.4647C84.9671 94.6747 84.3916 94.1994 83.7621 94.2885L80.4789 94.7533C80.2545 94.7851 80.0807 95.0589 80.0907 95.3649C80.1019 95.7083 79.8836 96.001 79.6334 95.9781L78.7604 95.8982C78.4956 95.874 78.2538 96.15 78.2204 96.5147C78.187 96.8794 78.3747 97.1947 78.6395 97.219L79.6883 97.3149C79.9583 97.3397 80.1646 97.6287 80.1767 97.9994ZM89.9335 118.229C89.8112 119.567 88.9247 120.579 87.9537 120.49C86.9826 120.401 86.2946 119.245 86.417 117.907C86.5394 116.57 87.4258 115.558 88.3969 115.647C89.3679 115.736 90.0559 116.892 89.9335 118.229ZM97.2246 121.338C98.1957 121.427 99.0821 120.415 99.2045 119.078C99.3269 117.741 98.6389 116.584 97.6678 116.496C96.6967 116.407 95.8103 117.419 95.6879 118.756C95.5655 120.093 96.2535 121.249 97.2246 121.338Z" fill="white"/>
<path opacity="0.4" d="M26.7241 233.782C41.4834 233.782 53.4481 226.869 53.4481 218.342C53.4481 209.814 41.4834 202.901 26.7241 202.901C11.9648 202.901 0 209.814 0 218.342C0 226.869 11.9648 233.782 26.7241 233.782Z" fill="#D8216E"/>
<path d="M7.6663 103.995C7.34237 106.587 4.26506 117.816 4.91291 121.649C5.56077 125.482 16.1424 131.907 16.1424 131.907L17.6001 125.321L11.8234 119.598L13.389 108.746L7.6663 103.995Z" fill="#FFCEA9"/>
<path d="M15.8725 92.9816C14.3608 92.3338 11.5534 92.1718 9.98778 94.7633C8.42213 97.3547 6.80249 106.209 6.69451 107.72C6.69451 107.72 8.90802 110.744 12.1473 110.258L15.8725 92.9816Z" fill="#EDEDED"/>
<path d="M27.9658 217.856C30.2873 218.504 32.7167 218.18 34.8223 217.046C36.4959 217.1 45.4039 213.267 46.6457 216.506C47.7254 219.314 43.8383 221.959 41.7327 222.445C37.1977 223.525 33.8505 225.792 32.0689 226.17C30.7192 226.44 28.9376 226.656 27.8578 225.576C26.5621 224.281 26.6701 219.53 27.9658 217.856Z" fill="#38226D"/>
<path d="M32.0689 225.36C33.9045 224.982 37.2517 222.715 41.7327 221.635C43.4604 221.203 46.4837 219.314 46.7536 217.046C47.1315 219.638 43.6763 221.959 41.7327 222.391C37.1977 223.471 33.8505 225.738 32.0689 226.116C30.7192 226.386 28.9376 226.602 27.8578 225.522C27.5879 225.198 27.3719 224.82 27.2639 224.443C28.8836 225.792 30.7192 225.63 32.0689 225.36Z" fill="#9C73FF"/>
<path d="M13.443 211.323C15.7645 211.971 18.194 211.647 20.2995 210.514C21.9731 210.568 30.8812 206.734 32.1229 209.974C33.2026 212.781 29.3155 215.426 27.21 215.912C22.675 216.992 19.3277 219.26 17.5461 219.638C16.1964 219.907 14.4148 220.123 13.335 219.044C12.0393 217.748 12.1473 213.051 13.443 211.323Z" fill="#38226D"/>
<path d="M17.5461 218.828C19.3817 218.45 22.729 216.182 27.21 215.103C28.9376 214.671 31.9609 212.781 32.2309 210.514C32.6628 213.105 29.1535 215.426 27.21 215.858C22.675 216.938 19.3277 219.206 17.5461 219.584C16.1964 219.853 14.4148 220.069 13.335 218.99C13.0651 218.666 12.8491 218.288 12.7412 217.91C14.3068 219.26 16.1964 219.152 17.5461 218.828Z" fill="#9C73FF"/>
<path d="M13.281 187.029C13.659 183.681 14.3608 180.442 15.3326 177.203C15.3326 177.203 14.7387 168.727 14.4148 160.737C14.0909 151.613 10.9056 143.622 13.389 136.334L41.4628 142.597C41.4628 142.597 39.7892 178.931 39.3573 183.304C39.1413 186.705 38.7094 190.106 38.1155 193.507C36.8198 200.58 34.7683 217.316 34.7683 217.316C31.7989 219.044 27.9118 218.072 27.9118 218.072C27.9118 218.072 28.1278 196.855 28.3437 191.78C28.5597 185.571 28.7756 186.057 28.7756 186.057L27.8578 170.616L27.2639 162.95C27.2639 162.95 26.5081 168.619 25.9682 173.64C25.5363 178.013 24.4566 182.008 23.2688 190.16C22.2431 197.232 20.5694 211.485 20.5694 211.485C17.6001 213.213 13.551 211.755 13.551 211.755C13.551 211.755 12.4712 193.183 13.281 187.029Z" fill="#8C50FF"/>
<path d="M17.3842 93.0897C19.5437 93.1976 21.1093 93.7375 21.3793 93.0897C21.5952 92.0099 21.7572 90.8762 21.8652 89.7424C21.5952 89.1485 21.3793 88.4467 21.3793 88.4467C18.6799 86.7731 17.8161 83.9117 17.4921 80.5105C16.8983 74.7337 20.0296 69.7128 25.8063 69.065C31.2591 68.5251 35.2542 72.3043 36.28 77.5951C36.8738 80.1865 38.0076 85.0994 36.4419 89.3645C35.5781 91.74 34.4444 93.6295 33.3646 94.0075C32.2848 93.9535 31.2051 93.8995 30.1793 93.7375C30.1793 93.7375 29.9094 95.3572 29.6934 96.3829C29.4775 97.4087 29.5854 97.9486 31.637 99.2443C33.6885 100.54 28.5057 103.077 25.1584 102.861C21.8112 102.646 17.978 100.486 16.9522 98.3265C15.8185 95.897 15.8725 93.0357 17.3842 93.0897Z" fill="#FFCEA9"/>
<path d="M20.4615 93.4136C19.8676 94.8712 21.3793 96.7068 25.3744 97.9486C29.3695 99.1903 29.7474 97.5706 29.7474 97.5706C29.7474 97.5706 35.6321 100.27 37.5757 101.566C40.0051 103.239 41.0309 108.152 41.4088 116.358C41.7867 125.914 41.8407 140.059 41.5168 142.489C41.5168 142.489 36.9818 146.97 31.2591 146.484C25.5363 145.998 15.7645 140.923 13.443 136.982C13.497 128.614 14.4688 127.264 13.1191 122.459C10.0418 111.446 8.36814 106.911 9.8798 99.5682C11.1215 93.5215 12.8491 92.7657 15.2246 92.8197C17.0062 93.0356 18.7338 93.1976 20.4615 93.4136Z" fill="#D8216E"/>
<path d="M50.4788 124.349C45.7279 125.536 44.6481 122.567 44.0002 120.084C42.4886 114.091 41.6788 108.692 40.545 105.291C39.2493 101.296 37.8456 100.648 35.902 99.8921C33.6345 98.9743 31.637 100.918 32.3928 105.993C33.3106 112.039 34.4984 116.25 36.7119 123.431C37.3057 125.32 38.6014 128.614 40.599 130.179C43.0285 132.177 46.6996 132.069 52.2604 130.665C54.6359 130.071 57.2273 128.668 61.7083 126.562C62.8961 126.022 63.8678 125.644 66.1893 124.565C68.5108 123.485 70.9403 121.703 72.128 119.922C73.3157 118.14 73.4777 117.33 73.2617 116.952C72.9378 116.466 72.3979 116.574 71.7501 117.276C70.8323 118.518 69.6446 119.598 68.3488 120.408C68.3488 120.408 69.8605 118.842 70.6703 117.87C71.3722 117.006 72.02 115.98 72.4519 114.955C72.8838 113.929 72.02 112.525 71.3182 113.281C70.6163 114.037 70.3464 114.739 69.1047 116.25C68.4568 117.006 67.701 117.708 66.8912 118.356C67.647 117.33 68.3488 116.25 68.9427 115.117C69.6985 113.551 69.6985 112.741 69.6985 112.201C69.6985 111.661 68.8887 111.014 68.1869 112.039C67.539 112.957 67.1071 114.361 65.6494 115.926C64.5697 117.06 63.6519 117.708 63.5979 117.384C63.5439 117.06 64.2458 116.466 64.6237 115.171C65.0016 113.875 64.6237 112.471 63.9218 112.309C63.22 112.147 63.328 112.201 62.7341 113.443C62.1402 114.685 61.2764 115.549 60.5746 117.384C59.9807 118.95 59.7108 119.598 58.631 120.731C57.5512 121.811 54.9598 123.215 50.4788 124.349Z" fill="#FFCEA9"/>
<path d="M34.1204 99.0283C37.3057 98.5424 39.5192 100 40.9229 104.751C42.3266 109.502 43.2984 113.497 43.2984 113.497C42.0567 115.279 40.1671 116.574 38.0076 117.006C34.2284 117.924 32.8787 116.143 32.8787 116.143C32.8787 116.143 31.7989 111.122 31.1511 107.72C30.5032 104.319 30.2333 99.6222 34.1204 99.0283Z" fill="#EDEDED"/>
<path d="M36.118 76.8392C36.118 76.8392 41.1389 69.2269 30.2873 67.7153C22.513 66.5815 17.4921 71.6024 16.8983 77.0552C16.3584 82.238 19.5437 87.6368 21.8652 89.7964C22.9989 90.2283 25.4284 90.4442 28.6137 88.9865C28.7216 87.5828 28.7756 86.1252 28.7756 84.7215C28.7216 84.7215 24.9425 76.7313 36.118 76.8392Z" fill="#3A2C6D"/>
<defs>
<linearGradient id="paint0_linear" x1="74.5327" y1="185.493" x2="158.106" y2="164.499" gradientUnits="userSpaceOnUse">
<stop stop-color="#D8216E"/>
<stop offset="1" stop-color="#FD7A7A"/>
</linearGradient>
</defs>
</svg>
