<svg width="239" height="340" viewBox="0 0 239 340" fill="none" xmlns="http://www.w3.org/2000/svg">
<path opacity="0.4" d="M189.493 294.559C216.448 294.559 238.299 281.948 238.299 266.393C238.299 250.838 216.448 238.227 189.493 238.227C162.538 238.227 140.687 250.838 140.687 266.393C140.687 281.948 162.538 294.559 189.493 294.559Z" fill="#D8216E"/>
<path d="M187.343 3.01282C189.278 -0.212242 204.328 -2.14728 209.058 10.538C210.993 15.2681 210.563 27.5233 212.283 35.2635C214.003 43.0036 217.443 47.3037 218.733 53.5388C220.023 59.7739 217.873 70.3091 202.823 72.0292C187.773 73.7492 176.162 68.5891 172.507 63.859C168.852 59.1289 168.852 48.8087 172.507 43.4336C176.162 38.0585 178.958 33.5434 178.958 26.2333L187.343 3.01282Z" fill="#3A2C6D"/>
<path d="M169.497 56.1188C169.497 56.1188 166.057 81.2743 172.722 98.9047C179.388 116.535 177.668 94.3896 177.668 94.3896L175.947 89.0145C175.947 89.0145 174.657 68.5891 175.087 63.644C175.517 58.6989 175.517 54.3988 175.947 53.9688C176.378 53.5388 174.657 52.6788 174.012 52.6788C173.367 52.6788 169.497 56.1188 169.497 56.1188Z" fill="#FFCEA9"/>
<path d="M197.233 0.862829C197.233 0.862829 186.053 -2.36223 179.172 3.65788C174.657 7.95797 172.722 14.4081 174.442 20.4282C175.302 23.8683 177.237 28.8134 180.033 29.0284C182.828 29.2434 197.233 0.862829 197.233 0.862829Z" fill="#3A2C6D"/>
<path d="M201.533 31.6084C201.533 31.6084 200.888 44.0786 201.103 45.1537C201.318 46.2287 206.048 46.8737 207.338 48.1637C208.628 49.4537 200.458 61.924 196.373 63.859C192.288 65.7941 179.387 60.849 178.527 54.6138C177.667 48.8087 182.183 44.2936 183.903 42.5736C184.978 42.5736 186.268 42.5736 187.343 42.5736L187.773 36.5535C193.363 34.4035 201.533 31.6084 201.533 31.6084Z" fill="#FFCEA9"/>
<path d="M203.253 46.2288C206.693 46.8738 210.778 48.5938 211.423 50.5288C212.928 57.409 212.498 64.7191 210.348 71.3842C207.338 79.5544 205.188 84.4995 203.468 88.1546C203.468 88.1546 188.203 94.6047 175.947 87.0795C175.947 87.0795 175.087 78.4794 175.087 73.7493C163.692 63.8591 173.367 51.6039 183.043 42.1437C184.118 42.1437 185.408 42.1437 186.483 42.1437C186.483 42.1437 177.883 52.2489 183.903 58.054C196.588 54.1839 199.168 48.5938 203.253 46.2288Z" fill="#F4F4F4"/>
<path d="M178.098 16.1282C179.388 7.95803 185.193 1.93791 193.578 2.36791C202.393 2.79792 209.273 10.3231 208.843 19.1382C208.628 24.2983 205.833 29.0284 201.748 31.8235C201.533 33.1135 201.103 34.1885 200.458 35.2636C197.448 38.7036 189.708 40.8537 187.128 40.8537C184.978 40.8537 183.043 38.9186 180.893 35.2636C176.162 27.9534 177.453 19.9983 178.098 16.1282Z" fill="#FFCEA9"/>
<path d="M195.943 2.58277C201.748 3.6578 206.478 5.37783 208.198 10.9679C209.273 14.838 210.778 22.3632 209.273 25.5882L208.413 27.9533L201.318 31.6083C201.318 31.6083 198.093 28.8133 199.168 20.8581C199.168 19.7831 198.738 18.7081 198.093 17.8481C197.663 16.9881 197.233 16.343 197.018 15.483C196.158 13.333 194.653 11.613 192.503 10.5379C187.128 7.52787 179.603 10.1079 178.528 11.1829C181.753 4.51781 188.848 0.862741 195.943 2.58277Z" fill="#3A2C6D"/>
<path d="M211.638 104.71C212.928 96.5397 215.508 91.1646 214.218 86.6495C211.638 77.6193 208.413 68.8042 204.328 60.204C201.748 55.0439 202.608 51.6038 205.188 49.6688C208.198 47.5187 210.993 48.3788 213.788 53.9689C217.228 61.064 221.098 68.3742 222.818 78.9094C224.108 85.7895 223.893 92.6696 222.603 99.5498C221.528 106.86 219.163 110.945 216.368 117.825C215.723 119.76 210.563 111.805 211.638 104.71Z" fill="#FFCEA9"/>
<path d="M206.693 257.148C203.683 259.513 199.168 257.793 198.953 258.008C195.513 261.018 191.858 263.813 188.203 266.178C186.268 267.683 183.473 269.618 183.903 272.413C184.763 277.358 192.718 275.853 195.728 274.348C198.738 272.843 201.103 270.263 204.113 268.543C206.263 267.253 208.198 266.608 208.413 264.028C208.628 262.523 207.123 256.933 206.693 257.148Z" fill="#38226D"/>
<path d="M208.413 262.953C207.983 265.318 206.048 266.178 204.113 267.253C201.318 268.973 198.738 271.553 195.728 273.058C192.718 274.563 186.053 275.853 184.118 272.198C185.193 276.928 192.933 275.423 195.943 273.918C198.953 272.413 201.318 269.833 204.328 268.113C206.478 266.823 208.413 266.178 208.628 263.598C208.413 263.598 208.413 263.383 208.413 262.953Z" fill="#9C73FF"/>
<path d="M185.838 252.848C183.043 254.998 179.172 253.923 178.957 253.923C175.732 256.718 172.507 259.083 169.067 261.448C167.347 262.738 164.767 264.458 165.197 267.038C166.057 271.553 173.367 270.263 176.162 268.758C178.957 267.253 181.108 265.103 183.688 263.383C185.623 262.308 187.343 261.663 187.773 259.298C187.773 258.223 186.483 252.848 185.838 252.848Z" fill="#38226D"/>
<path d="M187.558 258.653C187.128 260.803 185.408 261.448 183.473 262.738C180.893 264.458 178.528 266.823 175.733 268.113C172.937 269.403 166.917 270.693 164.982 267.468C166.057 271.768 173.152 270.478 175.733 269.188C178.313 267.898 180.678 265.533 183.258 263.813C185.193 262.738 186.913 262.093 187.343 259.728C187.558 259.298 187.558 259.083 187.558 258.653Z" fill="#9C73FF"/>
<path d="M169.927 115.675C171.217 105.57 175.087 90.7345 175.087 90.7345C178.527 92.4545 182.398 93.3145 186.483 93.5295C192.288 93.5295 197.878 92.8845 203.468 91.8095C205.403 95.0346 207.338 98.0446 209.488 101.055C212.498 105.14 218.088 113.955 216.798 129.65C215.938 139.755 210.133 182.971 210.133 182.971C212.283 190.281 213.573 197.807 213.573 205.332C213.143 214.362 211.853 223.392 209.918 232.207L206.478 256.718C206.478 256.718 201.963 259.943 198.738 257.578L199.168 233.497C198.738 227.692 198.093 218.877 197.878 213.502C197.233 204.472 195.728 190.066 195.083 186.626C194.438 183.186 193.363 176.736 192.933 169.856C192.503 162.976 189.708 127.285 189.708 127.285L189.278 133.95C189.278 133.95 188.848 144.701 187.343 158.031C185.838 171.361 185.193 177.381 185.193 177.381C186.698 179.961 187.773 182.971 188.203 185.981C188.418 188.776 191.858 211.782 189.708 223.392L185.623 252.848C183.473 254.353 180.893 254.568 178.527 253.708L176.162 224.037C174.657 212.642 171.217 188.776 170.787 185.551C169.712 179.316 169.067 172.866 168.852 166.416C168.422 153.946 168.637 125.995 169.927 115.675Z" fill="#FFCEA9"/>
<path d="M203.468 88.1545L212.283 105.785C212.283 105.785 225.613 125.35 211.853 175.661L214.433 191.142C214.433 191.142 188.203 207.912 170.572 191.142C170.572 191.142 164.552 144.701 167.777 123.2C169.497 110.945 172.292 98.6897 175.947 86.8645C175.947 86.8645 180.247 91.5946 202.393 88.5845" fill="#8C50FF"/>
<path d="M219.163 64.0741C219.163 64.0741 213.143 70.0942 205.833 69.4492L202.393 57.624C202.393 57.624 200.243 51.3888 205.403 48.8088C210.563 46.2287 216.153 52.0339 219.163 64.0741Z" fill="#EDEDED"/>
<path d="M183.043 42.3586C183.043 42.3586 176.162 40.2086 168.637 55.6889L171.432 57.4089C174.872 52.0338 178.743 46.8737 183.043 42.3586Z" fill="#EDEDED"/>
<ellipse rx="10.3614" ry="9.92972" transform="matrix(-1 0 0 1 60.5783 330.07)" fill="#A6A6AE"/>
<ellipse rx="9.49799" ry="9.92972" transform="matrix(-1 0 0 1 21.7229 310.211)" fill="#A6A6AE"/>
<ellipse rx="10.3614" ry="9.49799" transform="matrix(-1 0 0 1 161.602 284.739)" fill="#A6A6AE"/>
<ellipse rx="9.92972" ry="10.3614" transform="matrix(-1 0 0 1 104.183 257.108)" fill="#A6A6AE"/>
<path d="M2.29519 219.98L8.73054 270.354C8.81268 270.997 9.20136 271.56 9.77333 271.865L57.3617 297.242C57.8936 297.526 58.525 297.555 59.0804 297.32L160.482 254.526C161.059 254.283 161.488 253.784 161.643 253.178L179.449 183.37L180.34 178.396C181.523 171.788 184.693 165.699 189.427 160.939L190.663 159.697C191.645 158.71 191.344 157.048 190.078 156.468L122.274 125.408C121.717 125.153 121.071 125.194 120.551 125.516V125.516C112.208 130.691 106.91 139.605 106.351 149.405L101.895 227.54C101.853 228.276 101.41 228.929 100.741 229.24L10.0663 271.379" stroke="#C7C7CC" stroke-width="4"/>
<path d="M161 254L104.614 228.614" stroke="#C7C7CC" stroke-width="4"/>
<path d="M161.433 253.5V266.029C161.433 266.31 161.492 266.587 161.606 266.843L164.236 272.741C164.688 273.755 164.229 274.943 163.212 275.388L56.0376 322.341C55.4762 322.587 54.8331 322.562 54.2926 322.274L20.4 304.167C19.0558 303.449 18.9765 301.552 20.2562 300.724L101.339 248.281C102.064 247.812 102.406 246.931 102.187 246.095L100.807 240.822C100.764 240.657 100.742 240.487 100.742 240.316V230.341" stroke="#C7C7CC" stroke-width="4"/>
<path d="M134.835 128.454L178.008 149.177" stroke="#F1ADA4" stroke-width="13" stroke-linecap="round"/>
<path d="M61.4417 243.678L65.0506 187.44L102.041 208.492V270.143L61.4417 243.678Z" fill="#F2C8CB"/>
<path d="M74.6741 203.981V220.563C74.6741 222.411 75.6162 224.13 77.173 225.125V225.125C80.7763 227.427 85.5007 224.839 85.5007 220.563V208.792" stroke="#F5F6F7" stroke-width="3"/>
<path d="M123.394 258.113L101.891 270.143V208.492H110.913L118.281 203.379L123.394 258.113Z" fill="#FBDBDE"/>
<path d="M77.6815 181.125L118.431 203.229L110.913 208.492H102.192L65.0505 187.29L71.9675 185.786L77.6815 181.125Z" fill="#E88181"/>
<path d="M29.4939 260.083L33.1028 203.846L70.0934 224.897V286.548L29.4939 260.083Z" fill="#F2C8CB"/>
<path d="M42.7264 220.386V236.969C42.7264 238.816 43.6684 240.536 45.2252 241.53V241.53C48.8285 243.833 53.5529 241.245 53.5529 236.969V225.198" stroke="#F5F6F7" stroke-width="3"/>
<path d="M91.4457 274.519L69.9431 286.548V224.897H78.9652L86.3332 219.785L91.4457 274.519Z" fill="#FBDBDE"/>
<path d="M45.7337 197.53L86.4836 219.634L78.9652 224.897H70.2438L33.1028 203.695L40.0197 202.192L45.7337 197.53Z" fill="#E88181"/>
<path d="M55.6657 249.669L175.524 184.195C176.939 183.421 176.904 181.377 175.463 180.653L107.056 146.262C106.396 145.93 105.606 145.989 105.003 146.416L3.57991 218.094C2.38115 218.941 2.47308 220.748 3.75165 221.469L53.7244 249.655C54.3258 249.995 55.0597 250 55.6657 249.669Z" stroke="#C7C7CC" stroke-width="4"/>
<path d="M58.5 296.5L55 250" stroke="#C7C7CC" stroke-width="4"/>
</svg>
