<svg width="209" height="335" viewBox="0 0 209 335" fill="none" xmlns="http://www.w3.org/2000/svg">
<path opacity="0.3" d="M78.6207 312.328L37.5632 288.523L78.6207 264.937L119.678 288.523L78.6207 312.328Z" fill="#D8216E"/>
<path opacity="0.3" d="M143.701 274.328L102.644 250.742L143.701 226.937L184.54 250.742L143.701 274.328Z" fill="#D8216E"/>
<path d="M167.943 47.6385L126.885 24.0523L167.943 0.247681L209 24.0523L167.943 47.6385Z" fill="#D8216E"/>
<path d="M167.943 260.569L126.885 236.983V24.0521L167.943 47.6383V260.569Z" fill="#D8216E"/>
<path opacity="0.1" d="M167.943 260.569L126.885 236.983V24.0521L167.943 47.6383V260.569Z" fill="black"/>
<path d="M209 236.983L167.943 260.569V47.6383L209 24.0521V236.983Z" fill="#D8216E"/>
<path opacity="0.15" d="M209 236.983L167.943 260.569V47.6383L209 24.0521V236.983Z" fill="black"/>
<path d="M106.356 154.213L65.5172 130.408L106.356 106.822L147.414 130.408L106.356 154.213Z" fill="#E9EAF2"/>
<path d="M106.356 295.949L65.5172 272.363V130.409L106.356 154.213V295.949Z" fill="#E9EAF2"/>
<path opacity="0.1" d="M106.356 295.949L65.5172 272.363V130.409L106.356 154.213V295.949Z" fill="black"/>
<path d="M147.414 272.363L106.356 295.949V154.213L147.414 130.409V272.363Z" fill="#E9EAF2"/>
<path opacity="0.15" d="M147.414 272.363L106.356 295.949V154.213L147.414 130.409V272.363Z" fill="black"/>
<path d="M41.0575 266.466L0 242.88L41.0575 219.293L81.8966 242.88L41.0575 266.466Z" fill="#D8216E"/>
<path d="M41.0575 334.386L0 310.799V242.88L41.0575 266.466V334.386Z" fill="#D8216E"/>
<path opacity="0.1" d="M41.0575 334.386L0 310.799V242.88L41.0575 266.466V334.386Z" fill="black"/>
<path d="M81.8965 310.799L41.0575 334.386V266.466L81.8965 242.88V310.799Z" fill="#D8216E"/>
<path opacity="0.15" d="M81.8965 310.799L41.0575 334.386V266.466L81.8965 242.88V310.799Z" fill="black"/>
<path d="M110.287 94.1556C113.345 99.8337 117.276 104.857 121.644 109.661C122.954 110.972 132.345 107.477 130.379 106.385C128.414 105.293 122.299 96.7762 119.241 91.0981C116.621 84.328 114.437 77.1211 112.69 70.1326C110.724 63.1441 108.977 52.8797 107.667 47.8567C107.011 44.1441 104.172 41.305 100.46 40.4314C97.1838 39.5579 94.7815 40.6498 95.4367 44.5808C96.3102 52.0061 101.988 79.9601 110.287 94.1556Z" fill="#FFCEA9"/>
<path d="M104.827 203.788C107.667 206.19 112.034 204.006 112.253 204.224C115.747 207.5 119.241 210.339 122.954 213.178C124.701 214.489 127.54 216.454 127.103 219.293C126.23 224.316 118.368 222.788 115.31 221.259C112.253 219.73 109.85 217.328 107.011 215.581C105.046 214.27 103.08 213.615 102.644 211.213C102.862 209.684 104.391 203.788 104.827 203.788Z" fill="#38226D"/>
<path d="M103.08 210.121C103.517 212.523 105.483 213.179 107.448 214.489C110.287 216.236 112.908 218.857 115.747 220.385C118.586 221.914 125.356 223.225 127.322 219.73C126.23 224.535 118.586 223.006 115.529 221.477C112.471 219.949 110.069 217.546 107.23 215.799C105.264 214.489 103.299 213.834 102.862 211.431C102.862 210.776 103.08 210.339 103.08 210.121Z" fill="#9C73FF"/>
<path d="M134.529 186.753C137.368 189.156 142.609 186.535 142.827 186.753C145.885 189.811 149.161 192.868 152.437 195.489C154.184 197.018 157.023 198.765 156.586 201.604C155.713 206.627 147.85 205.098 144.793 203.569C141.736 202.041 139.333 199.638 136.494 197.891C134.529 196.581 132.563 195.926 132.126 193.523C132.345 190.903 133.218 188.719 134.529 186.753Z" fill="#38226D"/>
<path d="M132.345 192.65C132.781 195.052 134.747 195.707 136.713 197.018C139.552 198.765 142.172 201.385 145.011 202.914C147.85 204.443 154.621 205.753 156.586 202.259C155.494 207.064 147.85 205.535 144.793 204.006C141.736 202.477 139.333 200.075 136.494 198.328C134.529 197.018 132.563 196.362 132.126 193.96C132.345 193.305 132.345 192.868 132.345 192.65Z" fill="#9C73FF"/>
<path d="M65.7355 110.098C62.4597 130.408 71.4137 137.834 83.2068 142.202C91.5056 145.259 103.517 150.064 103.517 150.064C103.517 150.064 103.299 154.431 103.299 164.477C103.299 173.213 104.391 205.316 104.391 205.316C107.23 206.845 110.506 206.845 113.345 205.316C113.345 205.316 118.149 180.857 119.023 169.719C120.333 154.65 122.736 144.822 121.862 141.546C121.207 138.707 104.827 130.627 99.5861 126.259L134.092 137.834C133.437 141.546 133.218 145.259 133.218 149.19C133.437 160.983 134.092 186.972 134.092 186.972C134.092 186.972 138.896 190.466 142.827 186.972C142.827 186.972 151.563 135.868 150.471 129.098C149.379 122.765 119.241 109.661 113.781 105.075C111.816 103.546 109.414 102.891 107.011 103.328L65.7355 110.098Z" fill="#D8216E"/>
<path d="M148.287 118.615L125.138 105.293C124.701 105.075 124.264 105.075 123.827 105.293L83.4252 128.661L107.011 142.42L148.287 118.615Z" fill="#F4F4F4"/>
<path d="M105.919 137.615L104.172 138.707C103.954 138.707 103.954 138.926 104.172 138.926L105.919 139.799C106.138 139.799 106.356 139.799 106.575 139.799L108.322 138.707C108.54 138.707 108.54 138.489 108.322 138.489L106.575 137.615C106.356 137.397 106.138 137.397 105.919 137.615Z" fill="#3A2C6D"/>
<path d="M108.54 136.086L106.793 137.178C106.575 137.178 106.793 137.397 106.793 137.397L108.54 138.27C108.759 138.27 108.977 138.27 109.195 138.27L110.942 137.178C111.161 137.178 111.161 136.96 110.942 136.96L109.195 136.086C108.977 135.868 108.759 135.868 108.54 136.086Z" fill="#3A2C6D"/>
<path d="M110.942 134.558L109.195 135.65C108.977 135.65 108.977 135.868 109.195 135.868L110.942 136.742C111.161 136.742 111.379 136.742 111.598 136.742L113.345 135.65C113.563 135.65 113.563 135.431 113.345 135.431L111.598 134.558C111.379 134.558 111.161 134.558 110.942 134.558Z" fill="#3A2C6D"/>
<path d="M113.563 133.247L111.816 134.339C111.598 134.339 111.598 134.558 111.816 134.558L113.563 135.431C113.781 135.431 114 135.431 114.218 135.431L115.965 134.339C116.184 134.339 115.965 134.121 115.965 134.121L114.218 133.247C114 133.029 113.563 133.029 113.563 133.247Z" fill="#3A2C6D"/>
<path d="M115.965 131.719L114.218 132.811C114 132.811 114 133.029 114.218 133.029L115.965 133.903C116.184 133.903 116.402 133.903 116.621 133.903L118.368 132.811C118.586 132.811 118.586 132.592 118.368 132.592L116.621 131.719C116.402 131.5 116.184 131.5 115.965 131.719Z" fill="#3A2C6D"/>
<path d="M118.586 130.19L116.839 131.282C116.621 131.282 116.621 131.5 116.839 131.5L118.586 132.374C118.805 132.374 119.023 132.374 119.241 132.374L120.988 131.282C121.207 131.282 121.207 131.064 120.988 131.064L119.241 130.19C118.805 130.19 118.586 130.19 118.586 130.19Z" fill="#3A2C6D"/>
<path d="M120.988 128.88L119.241 129.972C119.023 129.972 119.023 130.19 119.241 130.19L120.988 131.064C121.207 131.064 121.425 131.064 121.644 131.064L123.391 129.972C123.609 129.972 123.609 129.753 123.391 129.753L121.644 128.88C121.425 128.661 121.207 128.661 120.988 128.88Z" fill="#3A2C6D"/>
<path d="M123.391 127.351L121.644 128.443C121.425 128.443 121.425 128.661 121.644 128.661L123.391 129.535C123.609 129.535 123.827 129.535 124.046 129.535L125.793 128.443C126.011 128.443 126.011 128.224 125.793 128.224L124.046 127.351C123.827 127.351 123.609 127.351 123.391 127.351Z" fill="#3A2C6D"/>
<path d="M126.011 125.822L124.264 126.914C124.046 126.914 124.264 127.132 124.264 127.132L126.011 128.006C126.23 128.006 126.448 128.006 126.667 128.006L128.414 126.914C128.632 126.914 128.414 126.696 128.414 126.696L126.667 125.822C126.23 125.822 126.23 125.822 126.011 125.822Z" fill="#3A2C6D"/>
<path d="M128.414 124.512L126.667 125.385C126.448 125.385 126.448 125.604 126.667 125.604L128.414 126.477C128.632 126.477 128.851 126.477 129.069 126.477L130.816 125.385C131.034 125.385 130.816 125.167 130.816 125.167L129.069 124.293C128.851 124.293 128.632 124.293 128.414 124.512Z" fill="#3A2C6D"/>
<path d="M131.034 122.983L129.287 124.075C129.069 124.075 129.069 124.293 129.287 124.293L131.034 125.167C131.253 125.167 131.471 125.167 131.69 125.167L133.437 124.293C133.655 124.293 133.655 124.075 133.437 124.075L131.69 123.201C131.253 122.983 131.034 122.983 131.034 122.983Z" fill="#3A2C6D"/>
<path d="M133.437 121.673L131.69 122.765C131.471 122.765 131.471 122.983 131.69 122.983L133.437 123.857C133.655 123.857 133.873 123.857 134.092 123.857L135.839 122.765C136.057 122.765 136.057 122.546 135.839 122.546L134.092 121.673C133.873 121.454 133.655 121.454 133.437 121.673Z" fill="#3A2C6D"/>
<path d="M135.839 120.144L134.092 121.236C133.874 121.236 133.874 121.454 134.092 121.454L135.839 122.328C136.057 122.328 136.276 122.328 136.494 122.328L138.241 121.236C138.46 121.236 138.46 121.018 138.241 121.018L136.494 120.144C136.276 120.144 136.057 120.144 135.839 120.144Z" fill="#3A2C6D"/>
<path d="M139.77 117.96L136.713 119.707C136.494 119.707 136.494 119.926 136.713 119.926L138.46 120.799C138.678 120.799 138.897 120.799 139.115 120.799L141.954 119.052C142.172 119.052 142.172 118.834 141.954 118.834L140.207 117.96C139.988 117.96 139.77 117.96 139.77 117.96Z" fill="#3A2C6D"/>
<path d="M107.23 133.903L105.483 134.994C105.264 134.994 105.264 135.213 105.483 135.213L107.23 136.086C107.448 136.086 107.667 136.086 107.885 136.086L109.632 134.994C109.85 134.994 109.85 134.776 109.632 134.776L107.885 133.903C107.667 133.903 107.448 133.903 107.23 133.903Z" fill="#3A2C6D"/>
<path d="M109.85 132.374L108.103 133.466C107.885 133.466 107.885 133.684 108.103 133.684L109.85 134.558C110.069 134.558 110.287 134.558 110.506 134.558L112.253 133.466C112.471 133.466 112.471 133.247 112.253 133.247L110.506 132.374C110.069 132.374 109.85 132.374 109.85 132.374Z" fill="#3A2C6D"/>
<path d="M112.253 131.064L110.506 132.155C110.287 132.155 110.287 132.374 110.506 132.374L112.253 133.247C112.471 133.247 112.69 133.247 112.908 133.247L114.655 132.155C114.874 132.155 114.655 131.937 114.655 131.937L112.908 131.064C112.69 130.845 112.471 130.845 112.253 131.064Z" fill="#3A2C6D"/>
<path d="M114.873 129.535L113.126 130.627C112.908 130.627 112.908 130.845 113.126 130.845L114.873 131.719C115.092 131.719 115.31 131.719 115.529 131.719L117.276 130.627C117.494 130.627 117.494 130.408 117.276 130.408L115.529 129.535C115.092 129.535 114.873 129.535 114.873 129.535Z" fill="#3A2C6D"/>
<path d="M117.276 128.224L115.529 129.316C115.31 129.316 115.529 129.535 115.529 129.535L117.276 130.408C117.494 130.408 117.713 130.408 117.931 130.408L119.678 129.316C119.896 129.316 119.896 129.098 119.678 129.098L117.931 128.224C117.713 128.006 117.494 128.006 117.276 128.224Z" fill="#3A2C6D"/>
<path d="M119.678 126.696L117.931 127.569C117.713 127.569 117.713 127.788 117.931 127.788L119.678 128.661C119.896 128.661 120.115 128.661 120.333 128.661L122.08 127.569C122.299 127.569 122.299 127.351 122.08 127.351L120.333 126.477C120.115 126.477 119.896 126.477 119.678 126.696Z" fill="#3A2C6D"/>
<path d="M122.299 125.167L120.552 126.259C120.333 126.259 120.333 126.477 120.552 126.477L122.299 127.351C122.517 127.351 122.736 127.351 122.954 127.351L124.701 126.259C124.919 126.259 124.919 126.041 124.701 126.041L122.954 125.167C122.517 125.167 122.299 125.167 122.299 125.167Z" fill="#3A2C6D"/>
<path d="M124.701 123.857L122.954 124.949C122.736 124.949 122.954 125.167 122.954 125.167L124.701 126.041C124.919 126.041 125.138 126.041 125.356 126.041L127.103 124.949C127.322 124.949 127.322 124.73 127.103 124.73L125.356 123.857C125.138 123.857 124.919 123.857 124.701 123.857Z" fill="#3A2C6D"/>
<path d="M127.322 122.328L125.575 123.42C125.356 123.42 125.356 123.638 125.575 123.638L127.322 124.512C127.54 124.512 127.759 124.512 127.977 124.512L129.724 123.42C129.942 123.42 129.942 123.202 129.724 123.202L127.977 122.328C127.54 122.328 127.322 122.328 127.322 122.328Z" fill="#3A2C6D"/>
<path d="M129.724 121.018L127.977 121.891C127.759 121.891 127.759 122.11 127.977 122.11L129.724 122.983C129.942 122.983 130.161 122.983 130.379 122.983L132.126 121.891C132.345 121.891 132.345 121.673 132.126 121.673L130.379 120.799C130.161 120.799 129.942 120.799 129.724 121.018Z" fill="#3A2C6D"/>
<path d="M132.345 119.489L130.598 120.581C130.379 120.581 130.598 120.799 130.598 120.799L132.345 121.673C132.563 121.673 132.782 121.673 133 121.673L134.747 120.581C134.965 120.581 134.965 120.362 134.747 120.362L133 119.489C132.563 119.489 132.345 119.489 132.345 119.489Z" fill="#3A2C6D"/>
<path d="M134.747 117.96L133 119.052C132.782 119.052 132.782 119.27 133 119.27L134.747 120.144C134.965 120.144 135.184 120.144 135.402 120.144L137.149 119.052C137.368 119.052 137.368 118.834 137.149 118.834L135.402 117.96C135.184 117.96 134.965 117.96 134.747 117.96Z" fill="#3A2C6D"/>
<path d="M104.828 135.431L101.77 137.178C101.552 137.178 101.77 137.397 101.77 137.397L103.517 138.27C103.736 138.27 103.954 138.27 104.172 138.27L107.23 136.523C107.448 136.523 107.23 136.305 107.23 136.305L105.483 135.431C105.046 135.213 105.046 135.213 104.828 135.431Z" fill="#3A2C6D"/>
<path d="M139.552 117.96L137.805 119.052C137.586 119.052 137.368 119.052 137.368 119.052L135.402 117.96C135.402 117.96 135.184 117.742 135.402 117.742C135.621 117.742 135.621 117.523 135.402 117.523L133.437 116.431C133.218 116.431 133.218 116.213 133.437 116.213L134.529 115.558C134.747 115.558 134.965 115.558 134.965 115.558L136.713 116.65L137.149 116.868L137.368 117.086L137.586 117.305L139.552 117.96C139.77 117.742 139.77 117.96 139.552 117.96Z" fill="#3A2C6D"/>
<path d="M96.3103 131.937L94.5631 132.811C94.3448 132.811 94.3448 133.029 94.5631 133.029L96.3103 133.903C96.5287 133.903 96.7471 133.903 96.9654 133.903L98.7126 132.811C98.931 132.811 98.931 132.592 98.7126 132.592L96.9654 131.719C96.7471 131.719 96.5287 131.719 96.3103 131.937Z" fill="#3A2C6D"/>
<path d="M98.931 130.408L97.1838 131.5C96.9655 131.5 96.9655 131.719 97.1838 131.719L98.931 132.592C99.1494 132.592 99.3677 132.592 99.5861 132.592L101.333 131.5C101.552 131.5 101.552 131.282 101.333 131.282L99.5861 130.408C99.1494 130.408 98.931 130.408 98.931 130.408Z" fill="#3A2C6D"/>
<path d="M101.333 128.88L99.5862 129.972C99.3678 129.972 99.3678 130.19 99.5862 130.19L101.333 131.064C101.552 131.064 101.77 131.064 101.988 131.064L103.736 129.972C103.954 129.972 103.954 129.753 103.736 129.753L101.988 128.88C101.77 128.88 101.552 128.88 101.333 128.88Z" fill="#3A2C6D"/>
<path d="M122.517 116.65L120.77 117.742C120.552 117.742 120.552 117.96 120.77 117.96L122.517 118.834C122.736 118.834 122.954 118.834 123.172 118.834L124.919 117.742C125.138 117.742 125.138 117.523 124.919 117.523L123.172 116.65C122.954 116.65 122.736 116.65 122.517 116.65Z" fill="#3A2C6D"/>
<path d="M124.919 115.339L123.172 116.431C122.954 116.431 122.954 116.65 123.172 116.65L124.919 117.523C125.138 117.523 125.356 117.523 125.575 117.523L127.322 116.431C127.54 116.431 127.54 116.213 127.322 116.213L125.575 115.339C125.356 115.339 125.138 115.339 124.919 115.339Z" fill="#3A2C6D"/>
<path d="M127.54 113.811L125.793 114.903C125.575 114.903 125.575 115.121 125.793 115.121L127.54 115.995C127.759 115.995 127.977 115.995 128.195 115.995L129.942 114.903C130.161 114.903 130.161 114.684 129.942 114.684L128.195 113.811C127.759 113.811 127.54 113.811 127.54 113.811Z" fill="#3A2C6D"/>
<path d="M129.942 112.5L128.195 113.592C127.977 113.592 127.977 113.811 128.195 113.811L129.942 114.684C130.161 114.684 130.379 114.684 130.598 114.684L132.345 113.592C132.563 113.592 132.345 113.374 132.345 113.374L130.598 112.5C130.379 112.282 130.161 112.282 129.942 112.5Z" fill="#3A2C6D"/>
<path d="M104.391 127.133L101.988 128.443C101.77 128.443 101.988 128.661 101.988 128.661L103.736 129.535C103.954 129.535 104.172 129.535 104.391 129.535L106.793 128.224C107.011 128.224 107.011 128.006 106.793 128.006L105.046 127.133C104.828 127.133 104.609 127.133 104.391 127.133Z" fill="#3A2C6D"/>
<path d="M120.115 118.178L117.713 119.489C117.494 119.489 117.494 119.707 117.713 119.707L119.46 120.581C119.678 120.581 119.896 120.581 120.115 120.581L122.517 119.27C122.736 119.27 122.736 119.052 122.517 119.052L120.77 118.178C120.333 118.178 120.115 118.178 120.115 118.178Z" fill="#3A2C6D"/>
<path d="M116.839 120.144L105.046 126.914C104.828 126.914 104.828 127.132 105.046 127.132L106.793 128.006C107.011 128.006 107.23 128.006 107.448 128.006L119.241 121.236C119.46 121.236 119.46 121.018 119.241 121.018L117.494 120.144C117.276 119.926 117.057 119.926 116.839 120.144Z" fill="#3A2C6D"/>
<path d="M105.483 132.155L103.736 133.247C103.517 133.247 103.517 133.466 103.736 133.466L105.483 134.339C105.701 134.339 105.919 134.339 106.138 134.339L107.885 133.247C108.103 133.247 108.103 133.029 107.885 133.029L106.138 132.155C105.919 131.937 105.701 131.937 105.483 132.155Z" fill="#3A2C6D"/>
<path d="M108.103 130.627L106.356 131.719C106.138 131.719 106.138 131.937 106.356 131.937L108.103 132.811C108.322 132.811 108.54 132.811 108.759 132.811L110.506 131.719C110.724 131.719 110.724 131.5 110.506 131.5L108.54 130.627C108.322 130.627 108.103 130.627 108.103 130.627Z" fill="#3A2C6D"/>
<path d="M110.506 129.316L108.759 130.408C108.54 130.408 108.759 130.627 108.759 130.627L110.506 131.5C110.724 131.5 110.942 131.5 111.161 131.5L112.908 130.408C113.126 130.408 113.126 130.19 112.908 130.19L111.161 129.316C110.942 129.098 110.724 129.098 110.506 129.316Z" fill="#3A2C6D"/>
<path d="M113.126 127.788L111.379 128.88C111.161 128.88 111.379 129.098 111.379 129.098L113.126 129.972C113.345 129.972 113.563 129.972 113.782 129.972L115.529 128.88C115.747 128.88 115.747 128.661 115.529 128.661L113.563 127.788C113.345 127.788 113.126 127.788 113.126 127.788Z" fill="#3A2C6D"/>
<path d="M115.529 126.477L113.782 127.569C113.563 127.569 113.782 127.788 113.782 127.788L115.529 128.661C115.747 128.661 115.965 128.661 116.184 128.661L117.931 127.569C118.149 127.569 118.149 127.351 117.931 127.351L116.184 126.477C115.965 126.259 115.747 126.259 115.529 126.477Z" fill="#3A2C6D"/>
<path d="M117.931 124.949L116.184 126.041C115.965 126.041 116.184 126.259 116.184 126.259L117.931 127.133C118.149 127.133 118.368 127.133 118.586 127.133L120.115 126.259C120.333 126.259 120.333 126.041 120.115 126.041L118.368 125.167C118.368 124.949 118.149 124.949 117.931 124.949Z" fill="#3A2C6D"/>
<path d="M120.552 123.42L118.804 124.512C118.586 124.512 118.804 124.73 118.804 124.73L120.552 125.604C120.77 125.604 120.988 125.604 121.207 125.604L122.954 124.512C123.172 124.512 122.954 124.293 122.954 124.293L121.207 123.42C120.77 123.42 120.77 123.42 120.552 123.42Z" fill="#3A2C6D"/>
<path d="M122.954 122.11L121.207 123.201C120.988 123.201 121.207 123.42 121.207 123.42L122.954 124.293C123.172 124.293 123.391 124.293 123.609 124.293L125.356 123.201C125.575 123.201 125.356 122.983 125.356 122.983L123.609 122.11C123.391 121.891 123.172 121.891 122.954 122.11Z" fill="#3A2C6D"/>
<path d="M125.575 120.581L123.828 121.673C123.609 121.673 123.828 121.891 123.828 121.891L125.575 122.765C125.793 122.765 126.011 122.765 126.23 122.765L127.977 121.673C128.195 121.673 127.977 121.454 127.977 121.454L126.23 120.581C125.793 120.581 125.575 120.581 125.575 120.581Z" fill="#3A2C6D"/>
<path d="M127.977 119.27L126.23 120.362C126.011 120.362 126.011 120.581 126.23 120.581L127.977 121.454C128.195 121.454 128.414 121.454 128.632 121.454L130.379 120.362C130.598 120.362 130.379 120.144 130.379 120.144L128.632 119.27C128.414 119.052 128.195 119.052 127.977 119.27Z" fill="#3A2C6D"/>
<path d="M130.379 117.742L128.632 118.834C128.414 118.834 128.414 119.052 128.632 119.052L130.379 119.925C130.598 119.925 130.816 119.925 131.034 119.925L132.782 118.834C133 118.834 132.782 118.615 132.782 118.615L131.034 117.96C130.816 117.742 130.598 117.742 130.379 117.742Z" fill="#3A2C6D"/>
<path d="M133 116.213L131.253 117.305C131.034 117.305 131.034 117.523 131.253 117.523L133 118.397C133.218 118.397 133.437 118.397 133.655 118.397L135.402 117.305C135.621 117.305 135.402 117.087 135.402 117.087L133.655 116.213C133.437 116.213 133.218 116.213 133 116.213Z" fill="#3A2C6D"/>
<path d="M103.08 133.466L99.3677 135.65C99.1494 135.65 99.1494 135.868 99.3677 135.868L101.115 136.742C101.333 136.742 101.552 136.742 101.77 136.742L105.483 134.558C105.701 134.558 105.701 134.339 105.483 134.339L103.736 133.466C103.517 133.466 103.299 133.466 103.08 133.466Z" fill="#3A2C6D"/>
<path d="M101.988 131.5L100.241 132.592C100.023 132.592 100.023 132.811 100.241 132.811L101.988 133.684C102.207 133.684 102.425 133.684 102.644 133.684L104.391 132.592C104.609 132.592 104.609 132.374 104.391 132.374L102.644 131.5C102.207 131.282 101.988 131.282 101.988 131.5Z" fill="#3A2C6D"/>
<path d="M104.391 129.972L102.644 131.064C102.425 131.064 102.425 131.282 102.644 131.282L104.391 132.155C104.609 132.155 104.828 132.155 105.046 132.155L106.793 131.064C107.011 131.064 107.011 130.845 106.793 130.845L104.828 129.972C104.828 129.972 104.609 129.972 104.391 129.972Z" fill="#3A2C6D"/>
<path d="M107.011 128.661L105.264 129.753C105.046 129.753 105.046 129.972 105.264 129.972L107.011 131.064C107.23 131.064 107.448 131.064 107.667 131.064L109.414 129.972C109.632 129.972 109.632 129.753 109.414 129.753L107.667 128.88C107.448 128.443 107.23 128.443 107.011 128.661Z" fill="#3A2C6D"/>
<path d="M109.414 127.133L107.667 128.224C107.448 128.224 107.448 128.443 107.667 128.443L109.414 129.316C109.632 129.316 109.85 129.316 110.069 129.316L111.816 128.224C112.034 128.224 112.034 128.006 111.816 128.006L110.069 127.133C109.85 127.133 109.632 127.133 109.414 127.133Z" fill="#3A2C6D"/>
<path d="M111.816 125.604L110.069 126.696C109.85 126.696 109.85 126.914 110.069 126.914L111.816 127.788C112.034 127.788 112.253 127.788 112.471 127.788L114.218 126.696C114.437 126.696 114.437 126.477 114.218 126.477L112.471 125.604C112.253 125.604 112.034 125.604 111.816 125.604Z" fill="#3A2C6D"/>
<path d="M114.437 124.293L112.69 125.385C112.471 125.385 112.471 125.604 112.69 125.604L114.437 126.477C114.655 126.477 114.874 126.477 115.092 126.477L116.839 125.385C117.057 125.385 117.057 125.167 116.839 125.167L115.092 124.293C114.655 124.075 114.437 124.075 114.437 124.293Z" fill="#3A2C6D"/>
<path d="M116.839 122.765L115.092 123.857C114.873 123.857 114.873 124.075 115.092 124.075L116.839 124.949C117.057 124.949 117.276 124.949 117.494 124.949L119.241 123.857C119.46 123.857 119.46 123.638 119.241 123.638L117.494 122.765C117.276 122.765 117.057 122.765 116.839 122.765Z" fill="#3A2C6D"/>
<path d="M119.241 121.454L117.494 122.546C117.276 122.546 117.276 122.765 117.494 122.765L119.241 123.638C119.46 123.638 119.678 123.638 119.896 123.638L121.644 122.546C121.862 122.546 121.862 122.328 121.644 122.328L119.896 121.454C119.678 121.236 119.46 121.236 119.241 121.454Z" fill="#3A2C6D"/>
<path d="M121.862 119.926L120.115 121.017C119.896 121.017 119.896 121.236 120.115 121.236L121.862 122.109C122.08 122.109 122.299 122.109 122.517 122.109L124.264 121.017C124.483 121.017 124.483 120.799 124.264 120.799L122.299 119.926C122.299 119.926 122.08 119.926 121.862 119.926Z" fill="#3A2C6D"/>
<path d="M124.483 118.397L122.736 119.489C122.517 119.489 122.517 119.707 122.736 119.707L124.483 120.581C124.701 120.581 124.919 120.581 125.138 120.581L126.667 119.707C126.885 119.707 126.885 119.489 126.667 119.489L124.919 118.615C124.701 118.397 124.483 118.397 124.483 118.397Z" fill="#3A2C6D"/>
<path d="M126.885 117.086L125.138 118.178C124.919 118.178 124.919 118.397 125.138 118.397L126.885 119.27C127.103 119.27 127.322 119.27 127.54 119.27L129.287 118.178C129.506 118.178 129.506 117.96 129.287 117.96L127.54 117.086C127.103 117.086 126.885 117.086 126.885 117.086Z" fill="#3A2C6D"/>
<path d="M132.345 113.811L127.54 116.65C127.322 116.65 127.322 116.868 127.54 116.868L129.287 117.742C129.506 117.742 129.724 117.742 129.942 117.742L134.747 114.903C134.965 114.903 134.965 114.684 134.747 114.684L133 113.811C132.782 113.811 132.563 113.811 132.345 113.811Z" fill="#3A2C6D"/>
<path d="M99.3678 132.811L96.9655 134.121C96.7471 134.121 96.7471 134.339 96.9655 134.339L98.7126 135.213C98.931 135.213 99.1494 135.213 99.3678 135.213L101.77 133.903C101.988 133.903 101.988 133.684 101.77 133.684L100.023 132.811C99.8045 132.811 99.5861 132.811 99.3678 132.811Z" fill="#3A2C6D"/>
<path d="M142.172 119.489L106.793 140.018C106.575 140.018 106.575 140.236 106.793 140.236L107.667 140.673C107.885 140.673 108.103 140.673 108.322 140.673L143.701 120.144C143.919 120.144 143.919 119.926 143.701 119.926L142.828 119.489C142.391 119.489 142.391 119.489 142.172 119.489Z" fill="#3A2C6D"/>
<path d="M100.678 120.362L100.896 120.581L107.011 124.075L117.931 117.742H118.149L111.816 114.029L100.678 120.362Z" fill="#BFBFBF"/>
<path d="M100.896 120.581L107.011 124.075L117.931 117.742L111.816 114.247L100.896 120.581Z" fill="#E5E5E5"/>
<path d="M83.4252 128.661V129.316C83.4252 130.19 83.862 130.845 84.5172 131.282L106.138 143.73C106.356 143.73 106.793 143.73 107.011 143.73C107.448 143.73 107.885 143.73 108.103 143.512L146.977 121.018C147.632 120.581 148.069 119.926 148.069 119.052V118.397L107.011 142.42L83.4252 128.661Z" fill="#E5E5E5"/>
<path d="M107.667 142.638C108.322 142.857 109.195 142.857 109.851 142.42L148.724 119.926C149.379 119.489 149.816 118.834 150.034 118.178L154.402 92.8451C154.402 92.6267 154.402 92.6267 154.402 92.4083C154.402 91.7532 154.184 91.098 153.747 90.4428L113.345 113.811C112.908 114.029 112.471 114.684 112.471 115.121L107.667 142.638Z" fill="#F4F4F4"/>
<path d="M107.011 142.42L107.23 142.638L107.667 142.857L112.253 115.339C112.253 114.684 112.69 114.247 113.126 114.029L153.529 90.6612C153.31 90.4428 153.092 90.4428 152.873 90.2244L112.69 113.592C112.253 113.811 111.816 114.466 111.816 114.903L107.011 142.42Z" fill="#E5E5E5"/>
<path d="M77.747 33.8796C77.747 33.8796 78.1838 43.4888 77.9654 44.3624C77.747 45.236 73.5976 48.075 72.2872 49.167C70.9769 50.259 78.839 57.9026 82.77 59.6498C86.701 61.3969 98.7125 56.8107 98.9309 50.9141C99.1493 45.0176 96.747 39.9946 94.9999 39.5578C93.2528 39.121 77.747 33.8796 77.747 33.8796Z" fill="#FFCEA9"/>
<path d="M76.6551 46.1095C76.6551 46.1095 83.6436 56.5923 93.4712 57.4658C96.5286 54.4084 96.747 43.7072 92.5976 40.213C92.5976 40.213 96.5286 37.1555 99.1493 37.5923C101.988 39.3394 104.172 41.9601 105.264 45.2359C107.667 52.4428 108.977 59.8681 108.759 67.5118C108.54 77.7762 108.759 103.546 108.759 103.546C107.667 109.661 103.954 115.121 98.4941 118.397C91.5056 122.328 83.2068 123.42 75.3447 121.673C71.4137 120.799 68.1378 117.96 66.8275 114.247C67.2643 107.041 70.1033 92.4084 69.0114 83.2359C67.9194 74.0635 65.9539 67.5118 65.2988 60.3049C64.6436 53.098 66.1723 53.098 69.885 50.4773C72.0689 48.9486 74.2528 47.4199 76.6551 46.1095Z" fill="#F4F4F4"/>
<path d="M88.0114 129.098C86.2642 128.006 84.5171 126.914 82.5516 126.041C80.8045 125.385 79.2757 124.512 77.9654 123.202C76.2183 121.454 73.3792 115.121 71.4137 109.006C69.4482 102.018 68.5746 94.8108 69.0114 87.3855C69.8849 78.6499 72.9424 66.42 73.816 61.6154C74.6895 56.8108 72.9424 54.6269 70.7585 52.8797C67.9194 50.6958 64.2068 51.5694 62.2413 58.7763C59.6206 68.3855 58.3102 78.4315 57.8734 88.4774C57.8734 95.9027 58.9654 103.328 61.1493 110.317C63.3332 116.431 65.9539 122.11 69.4482 127.569C70.3217 129.098 70.7585 130.627 72.2872 133.903C73.5976 137.179 75.9999 140.236 78.6206 142.42C81.0229 144.167 82.3332 144.385 82.77 144.167C83.2068 143.949 83.4252 142.857 82.3332 141.983C80.5861 140.673 79.0574 138.926 77.9654 137.179C77.9654 137.179 80.1493 139.362 81.4596 140.454C82.77 141.546 84.0803 142.42 85.6091 143.075C87.1378 143.73 89.1033 142.42 88.0114 141.546C86.9194 140.673 86.0459 140.018 83.862 138.271C82.77 137.397 81.678 136.305 80.8045 135.213C82.3332 136.305 83.8619 137.397 85.3907 138.271C86.701 138.926 88.0114 139.362 89.5401 139.362C90.1953 139.362 91.2872 138.271 89.7585 137.179C87.793 136.087 86.0459 134.995 84.2987 133.466C82.77 131.937 81.8964 130.627 82.3332 130.627C82.77 130.627 83.6436 131.5 85.3907 132.156C87.1378 132.811 89.1033 132.156 89.3217 131.282C89.5401 130.408 89.7585 129.972 88.0114 129.098Z" fill="#FFCEA9"/>
<path d="M99.5861 19.6843C98.4942 12.259 93.0344 6.58084 85.3907 7.01762C77.0919 7.4544 70.9769 14.4429 71.4137 22.7418C71.6321 27.328 74.0344 31.4774 77.9654 34.0981C78.1838 35.19 78.6206 36.282 79.0574 37.3739C81.6781 40.6498 89.9769 42.6153 92.3792 42.1785C95.2183 41.9601 97.6206 39.9946 98.4942 37.1556C101.115 31.0406 100.241 23.1785 99.5861 19.6843Z" fill="#FFCEA9"/>
<path d="M77.747 33.8797L78.4022 27.3279C78.4022 27.3279 73.1608 13.5693 85.6091 16.19C93.9079 17.9371 96.0918 18.5923 98.4941 13.1325C100.896 7.67278 92.3792 2.64979 81.6781 3.96014C74.0344 4.8337 68.3562 11.167 68.5746 18.8107C68.793 22.9601 69.8849 31.259 77.747 33.8797Z" fill="#3A2C6D"/>
<path d="M56.1263 71.4428C56.1263 71.4428 63.1148 78.2129 71.1953 76.2474C72.2873 75.3739 75.1263 59.4313 75.1263 59.4313C75.1263 59.4313 75.1263 50.4773 68.3562 50.6957C61.5861 50.9141 56.1263 71.4428 56.1263 71.4428Z" fill="#EDEDED"/>
<path d="M108.103 58.121C110.069 58.121 111.816 57.2474 113.126 55.9371C112.908 52.4428 108.322 38.6842 98.931 37.8107C101.552 39.5578 103.517 41.9601 104.609 44.7992C106.356 49.167 107.448 53.5348 108.103 58.121Z" fill="#EDEDED"/>
</svg>
