<svg width="203" height="202" viewBox="0 0 203 202" fill="none" xmlns="http://www.w3.org/2000/svg">
<path d="M161.67 146.372C182.629 118.735 161.17 50.3723 123.67 32.8723C86.1701 15.3723 72.9654 39.6882 37.6701 61.3724C2.37484 83.0565 20.6701 134.372 65.7695 153.277C110.869 172.181 140.712 174.01 161.67 146.372Z" fill="#D8216E"/>
<path d="M74 112V123" stroke="white" stroke-width="4"/>
<path d="M81 118V123" stroke="white" stroke-width="4"/>
<path d="M88 108V123" stroke="white" stroke-width="4"/>
<path d="M95 100V123" stroke="white" stroke-width="4"/>
<path d="M102 114V123" stroke="white" stroke-width="4"/>
<path d="M109 102V123" stroke="white" stroke-width="4"/>
<path d="M116 117V123" stroke="white" stroke-width="4"/>
<path d="M116 109V115" stroke="white" stroke-width="4"/>
<path d="M116 101V107" stroke="white" stroke-width="4"/>
<path d="M116 93V99" stroke="white" stroke-width="4"/>
<path d="M72 106L83.8303 94.9584C85.8672 93.0573 88.5496 92 91.3358 92H102.689C105.461 92 108.13 90.9541 110.163 89.0714L120.5 79.5" stroke="white" stroke-width="4"/>
<path d="M113.084 78L121.5 78L121.5 85.8934" stroke="white" stroke-width="4"/>
</svg>
