<svg width="188" height="189" viewBox="0 0 188 189" fill="none" xmlns="http://www.w3.org/2000/svg">
<path d="M165.416 102.174C186.374 74.5365 147.142 26.3101 106.071 29.8673C64.9992 33.4244 71.0378 52.3754 35.7425 74.0595C0.44722 95.7437 21.3307 155.961 69.5992 150.404C117.868 144.847 144.457 129.812 165.416 102.174Z" fill="#D8216E"/>
<path d="M110.841 80.4608L80.8471 97.7776" stroke="white" stroke-width="4"/>
<path d="M104.82 95.0457L111.485 91.1975" stroke="white" stroke-width="4"/>
<path fill-rule="evenodd" clip-rule="evenodd" d="M76.4226 95.8705C74.8351 93.1209 75.7772 89.6051 78.5268 88.0176C79.2473 87.6016 78.9522 86.5 78.1201 86.5L65.5 86.5C64.6716 86.5 64 85.8285 64 85C64 84.1716 64.6716 83.5 65.5 83.5L85.8155 83.5C86.1666 83.5 86.5114 83.4076 86.8155 83.2321L88.5475 82.2321C90.3196 81.209 89.5937 78.5001 87.5475 78.5001H77C76.1716 78.5001 75.5 77.8285 75.5 77.0001C75.5 76.1716 76.1716 75.5001 77 75.5001H99.6719C100.023 75.5001 100.368 75.4076 100.672 75.2321L103.549 73.5711C106.298 71.9837 109.814 72.9257 111.402 75.6753L120.076 90.6994C121.663 93.449 120.721 96.9648 117.972 98.5523L92.9497 112.999C90.2001 114.586 86.6842 113.644 85.0967 110.895L83.1369 107.5C82.7796 106.881 82.1194 106.5 81.4048 106.5H73.5C72.6716 106.5 72 105.828 72 105C72 104.172 72.6716 103.5 73.5 103.5H78.2294C79.3841 103.5 80.1058 102.25 79.5284 101.25C79.2605 100.786 78.7653 100.5 78.2294 100.5H75.7956H66.5C65.6716 100.5 65 99.8284 65 99C65 98.1716 65.6716 97.5 66.5 97.5H75.7956C76.4924 97.5 76.9279 96.7457 76.5795 96.1423L76.4226 95.8705ZM80.443 91.3366C79.5265 91.8658 79.2125 93.0377 79.7416 93.9543L88.4158 108.978C88.9449 109.895 90.1169 110.209 91.0334 109.68L116.055 95.2333C116.972 94.7041 117.286 93.5322 116.757 92.6156L108.083 77.5916C107.553 76.675 106.382 76.361 105.465 76.8902L80.443 91.3366Z" fill="white"/>
</svg>
