<svg width="161" height="135" viewBox="0 0 161 135" fill="none" xmlns="http://www.w3.org/2000/svg">
<path d="M155.031 53.4447C140 1.48293 98.2059 14.4827 56 7.49759C13.7942 0.512447 -4.49998 45.4978 7.62384 82.9783C19.7477 120.459 56 128.5 102 128.499C148 128.498 164.669 86.7642 155.031 53.4447Z" fill="#D8216E"/>
<rect x="63" y="40.9976" width="28" height="47" rx="5" stroke="white" stroke-width="4"/>
<path d="M73 83.9976H82" stroke="white"/>
<path d="M72 43.9976L73.0993 45.3716C73.6686 46.0833 74.5305 46.4976 75.4419 46.4976H80.0581C80.9695 46.4976 81.8314 46.0833 82.4007 45.3716L83.5 43.9976" stroke="white"/>
<path fill-rule="evenodd" clip-rule="evenodd" d="M89.4473 53.4414V75.5537C89.1066 75.5434 88.7745 75.7084 88.5798 76.0067L86.3374 79.4422C85.9428 80.0468 85.0572 80.0468 84.6626 79.4422L82.4203 76.0067C82.1631 75.6128 81.6662 75.4513 81.2267 75.6189L77.3932 77.0803C76.7186 77.3374 76.0022 76.8169 76.0383 76.0958L76.2435 71.9984C76.2671 71.5286 75.9599 71.1059 75.5058 70.9831L71.5456 69.9121C70.8486 69.7237 70.575 68.8814 71.028 68.3193L73.6024 65.1251C73.8976 64.7588 73.8976 64.2363 73.6024 63.87L71.028 60.6758C70.575 60.1137 70.8487 59.2714 71.5456 59.083L75.5058 58.012C75.9599 57.8892 76.2671 57.4665 76.2435 56.9966L76.0383 52.8993C76.0022 52.1782 76.7186 51.6577 77.3932 51.9148L81.2267 53.3762C81.6662 53.5438 82.1631 53.3823 82.4203 52.9884L84.6626 49.5529C85.0572 48.9483 85.9428 48.9483 86.3374 49.5529L88.5798 52.9884C88.7745 53.2866 89.1066 53.4516 89.4473 53.4414Z" fill="white"/>
<path fill-rule="evenodd" clip-rule="evenodd" d="M95.9559 76.8321L96.6068 77.0802C97.2814 77.3374 97.9978 76.8169 97.9617 76.0958L97.7565 71.9984C97.7329 71.5286 98.0401 71.1059 98.4942 70.9831L102.454 69.9121C103.151 69.7237 103.425 68.8814 102.972 68.3193L100.398 65.1251C100.102 64.7588 100.102 64.2363 100.398 63.87L102.972 60.6758C103.425 60.1137 103.151 59.2714 102.454 59.083L98.4942 58.012C98.0401 57.8892 97.7329 57.4665 97.7565 56.9966L97.9617 52.8993C97.9978 52.1782 97.2814 51.6577 96.6068 51.9148L95.9559 52.1629V76.8321Z" fill="white"/>
</svg>
