<svg width="236" height="414" viewBox="0 0 236 414" fill="none" xmlns="http://www.w3.org/2000/svg">
<path d="M57.1683 45.9516C57.2913 31.9587 65.7603 24.9087 76.0844 30.2048L163.105 74.8462C173.429 80.1423 181.699 95.7792 181.576 109.772L179.302 368.377C179.179 382.37 170.71 389.42 160.386 384.124L73.3653 339.483C63.0412 334.186 54.7717 318.55 54.8947 304.557L57.1683 45.9516Z" fill="url(#paint0_linear)"/>
<path fill-rule="evenodd" clip-rule="evenodd" d="M93.5082 182.392C93.5336 183.171 94.0172 183.737 94.5883 183.656L97.5614 183.235C98.0796 183.162 98.5534 183.553 98.7337 184.203L99.4387 186.746C99.7501 187.87 99.0592 189.116 98.1701 189.035L91.7658 188.448C91.2752 188.403 90.8274 188.915 90.7656 189.59C90.7038 190.266 91.0513 190.85 91.5419 190.895L100.106 191.678C100.547 191.719 100.921 192.094 101.076 192.652L101.544 194.339C101.855 195.463 101.164 196.709 100.275 196.628L99.3841 196.546C98.8936 196.501 98.4458 197.012 98.384 197.688C98.3221 198.363 98.6697 198.947 99.1602 198.992L102.211 199.272C102.652 199.312 103.026 199.687 103.181 200.245L103.999 203.198C104.311 204.321 103.62 205.568 102.731 205.486L97.1201 204.973C96.6296 204.928 96.1818 205.439 96.12 206.115C96.0581 206.79 96.4057 207.374 96.8962 207.419L104.666 208.13C105.108 208.171 105.482 208.546 105.636 209.104L106.047 210.587C106.453 212.05 107.519 212.93 108.685 212.765L127.874 210.048C129.088 209.877 130.114 208.616 130.377 206.974L133.852 185.273C134.032 184.144 133.824 182.994 133.286 182.163C132.749 181.332 131.945 180.914 131.11 181.032L108.456 184.24C107.798 184.333 107.287 185.137 107.317 186.035L107.449 190.099C107.479 190.997 108.036 191.649 108.695 191.556L126.294 189.064C127.078 188.953 127.682 189.887 127.512 190.949L126.912 194.695C126.779 195.529 126.209 196.123 125.598 196.067L117.114 195.291C116.623 195.246 116.175 195.757 116.113 196.433C116.052 197.108 116.399 197.692 116.89 197.737L124.988 198.478C125.685 198.542 126.156 199.418 126.004 200.368L125.777 201.787C125.66 202.517 125.204 203.077 124.664 203.153L111.273 205.049C110.755 205.123 110.281 204.731 110.101 204.081L102.787 177.698C102.381 176.234 101.315 175.354 100.149 175.519L94.0681 176.38C93.6524 176.439 93.3304 176.946 93.3489 177.513C93.3697 178.149 92.9654 178.691 92.502 178.649L90.8849 178.501C90.3944 178.456 89.9466 178.967 89.8848 179.642C89.8229 180.318 90.1705 180.902 90.661 180.947L92.6036 181.125C93.1038 181.17 93.4858 181.706 93.5082 182.392ZM111.581 219.864C111.354 222.34 109.712 224.215 107.913 224.05C106.115 223.886 104.84 221.744 105.067 219.267C105.294 216.79 106.936 214.916 108.734 215.081C110.533 215.245 111.807 217.387 111.581 219.864ZM125.085 225.622C126.884 225.787 128.526 223.912 128.753 221.435C128.979 218.958 127.705 216.817 125.906 216.652C124.108 216.488 122.466 218.362 122.239 220.839C122.012 223.316 123.287 225.457 125.085 225.622Z" fill="url(#paint1_linear)"/>
<defs>
<linearGradient id="paint0_linear" x1="83.0542" y1="344.453" x2="237.854" y2="305.568" gradientUnits="userSpaceOnUse">
<stop stop-color="#FFB0C3"/>
<stop offset="1" stop-color="#FFF5D0"/>
</linearGradient>
<linearGradient id="paint1_linear" x1="96.0704" y1="222.966" x2="144.346" y2="195.81" gradientUnits="userSpaceOnUse">
<stop stop-color="#D8216E"/>
<stop offset="1" stop-color="#FD7A7A"/>
</linearGradient>
</defs>
</svg>
