<svg width="143" height="295" viewBox="0 0 143 295" fill="none" xmlns="http://www.w3.org/2000/svg">
<rect x="2.05517" y="0.983786" width="19.2158" height="35.4505" rx="4.5" transform="matrix(0.965926 -0.258819 0.404187 0.914676 -0.327605 59.0323)" fill="white" stroke="#C7C7CC" stroke-width="3"/>
<path opacity="0.4" d="M93.5936 294.18C120.548 294.18 142.399 281.57 142.399 266.014C142.399 250.459 120.548 237.849 93.5936 237.849C66.6388 237.849 44.7876 250.459 44.7876 266.014C44.7876 281.57 66.6388 294.18 93.5936 294.18Z" fill="#D8216E"/>
<path d="M127.779 63.6954C128.209 68.2105 133.799 87.7759 132.509 94.441C131.219 101.106 112.944 112.286 112.944 112.286L110.364 100.891L120.684 90.7859L117.889 71.8656L127.779 63.6954Z" fill="#FFCEA9"/>
<path d="M113.374 44.345C117.029 42.6249 121.544 43.915 123.694 47.57C126.489 52.0851 129.284 67.5654 129.499 70.1455C129.499 70.1455 125.629 75.5206 120.039 74.4456L113.374 44.345Z" fill="#EDEDED"/>
<path d="M92.3035 262.574C88.2184 263.649 83.9184 263.219 80.2633 261.069C77.4683 261.069 61.7729 254.404 59.6229 259.994C57.6879 264.939 64.568 269.454 68.2231 270.314C76.1782 272.249 81.9833 276.12 85.2084 276.765C87.5734 277.195 90.5835 277.625 92.5185 275.69C94.6686 273.754 94.4536 265.369 92.3035 262.574Z" fill="#2B2A30"/>
<path d="M85.2084 275.475C81.9833 274.83 76.1782 270.959 68.223 269.024C65.213 268.379 60.0529 264.939 59.4079 261.069C58.7628 265.584 64.783 269.669 68.223 270.529C76.1782 272.464 81.9833 276.334 85.2084 276.98C87.5734 277.41 90.5835 277.84 92.5185 275.904C92.9485 275.259 93.3785 274.614 93.5935 273.969C91.2285 275.689 88.0034 276.335 85.2084 275.475Z" fill="#BF4B4B"/>
<path d="M117.674 251.179C113.589 252.254 109.289 251.824 105.634 249.674C102.839 249.674 87.1434 243.009 84.9934 248.599C83.0583 253.544 89.9385 258.059 93.5936 258.919C101.549 260.854 107.354 264.724 110.579 265.369C112.944 265.799 115.954 266.229 117.889 264.294C120.039 262.359 119.824 253.974 117.674 251.179Z" fill="#2B2A30"/>
<path d="M110.579 264.079C107.354 263.434 101.549 259.564 93.5935 257.629C90.5835 256.984 85.4234 253.544 84.7783 249.674C84.1333 254.189 90.1535 258.274 93.5935 259.134C101.549 261.069 107.354 264.939 110.579 265.584C112.944 266.014 115.954 266.444 117.889 264.509C118.319 263.864 118.749 263.219 118.964 262.574C116.599 264.509 113.374 264.939 110.579 264.079Z" fill="#BF4B4B"/>
<path d="M118.104 208.608C117.459 202.803 116.169 196.998 114.449 191.408C114.449 191.408 115.524 176.573 116.169 162.597C116.814 146.687 122.404 132.712 117.889 120.026L68.8681 130.992C68.8681 130.992 71.8781 194.418 72.5231 202.158C72.9531 208.178 73.5982 213.983 74.6732 220.003C76.8232 232.259 80.4783 261.714 80.4783 261.714C84.1334 263.434 88.4335 263.864 92.5185 263.004C92.5185 263.004 92.0885 226.024 91.8735 216.993C91.4435 206.243 91.2285 207.103 91.2285 207.103L92.9485 180.228L94.0236 166.897C94.0236 166.897 95.3136 176.788 96.1736 185.603C97.0336 193.343 98.7536 200.223 100.904 214.413C102.624 226.884 105.634 251.609 105.634 251.609C110.794 254.619 117.889 252.039 117.889 252.039C117.889 252.039 119.394 219.358 118.104 208.608Z" fill="#E26161"/>
<path d="M110.794 44.56C107.139 44.775 104.344 45.635 103.699 44.56C103.269 42.6249 103.054 40.6899 102.839 38.7549C103.269 37.6798 103.699 36.6048 103.699 36.6048C108.429 33.8098 109.934 28.6497 110.579 22.6296C111.654 12.5244 106.279 3.70918 95.9586 2.63416C86.4984 1.55914 79.4033 8.22429 77.6832 17.4695C76.6082 21.9846 74.6732 30.5847 77.4682 37.8949C78.9733 41.9799 80.9083 45.42 82.8434 46.065C84.7784 46.065 86.4984 45.85 88.4334 45.635C88.4334 45.635 88.8635 48.4301 89.2935 50.1501C89.7235 51.8701 89.5085 52.9452 85.8534 55.0952C82.1983 57.2452 91.2285 61.7603 97.2486 61.3303C103.269 60.9003 109.719 57.2452 111.654 53.5901C113.589 49.5051 113.374 44.56 110.794 44.56Z" fill="#FFCEA9"/>
<path d="M105.419 45.205C106.494 47.7851 103.699 51.0101 96.8186 53.1602C89.9385 55.3102 89.0785 52.5152 89.0785 52.5152C84.3484 54.6652 79.8333 57.0303 75.3182 59.6103C71.0181 62.6204 69.2981 71.0055 68.6531 85.4108C68.0081 101.966 68.0081 126.692 68.4381 130.992C68.4381 130.992 76.3932 138.732 86.4984 138.087C96.6036 137.442 113.589 128.412 117.674 121.532C117.674 106.911 115.739 104.546 118.319 96.161C123.694 76.8106 126.489 69.0705 123.909 56.1703C121.759 45.6351 118.749 44.345 114.449 44.345C111.654 44.345 108.429 44.775 105.419 45.205Z" fill="#F4F4F4"/>
<path d="M52.9578 99.171C61.3429 101.321 63.278 95.946 64.353 91.6459C66.933 81.1107 68.4381 71.6505 70.3731 65.8454C72.7382 58.7503 75.1032 57.6752 78.5433 56.3852C82.6284 54.6652 86.0684 58.1052 84.5634 67.1354C82.8434 77.4556 80.4783 87.5608 77.0383 97.451C75.9632 100.676 73.8132 106.481 70.1581 109.276C65.858 112.716 59.4079 112.501 49.7327 110.136C45.6476 109.061 41.1325 106.696 33.1774 103.041C31.0273 101.966 29.5223 101.321 25.4373 99.601C21.3522 97.666 17.9121 95.0859 15.117 91.4309C12.967 88.4208 12.752 86.9158 13.182 86.2708C13.612 85.6258 14.687 85.6258 15.7621 86.9158C17.4821 89.0658 19.4171 91.0009 21.7822 92.5059C21.7822 92.5059 19.2021 89.7108 17.6971 87.9908C16.4071 86.4858 15.332 84.7657 14.472 82.8307C13.612 81.1107 15.332 78.5306 16.4071 79.8207C17.4821 81.1107 18.1271 82.4007 20.2771 84.9808C21.3522 86.2708 22.6422 87.5608 24.1472 88.6358C22.8572 86.9158 21.5672 84.9808 20.7071 83.0457C19.8471 81.5407 19.4171 79.6056 19.4171 77.8856C19.4171 77.0256 20.7071 75.7356 21.9972 77.6706C23.2872 80.0357 24.7922 82.4007 26.5123 84.3357C28.4473 86.2708 29.9523 87.3458 29.9523 86.9158C29.9523 86.4858 28.8773 85.1958 28.2323 83.0457C27.5873 80.8957 28.2323 78.3156 29.5223 78.1006C30.8123 77.8856 30.5973 77.8856 31.4573 80.0357C32.7474 82.1857 34.0374 84.5507 35.3274 86.9158C35.9724 89.0658 37.0475 91.2159 38.7675 92.7209C40.7025 94.656 45.2176 97.236 52.9578 99.171Z" fill="#FFCEA9"/>
<path d="M81.5533 54.8802C75.9632 54.0202 72.0931 56.6002 69.7281 64.9854C67.363 73.3705 65.643 80.2507 65.643 80.2507C67.793 83.4757 71.2331 85.6258 74.8882 86.4858C81.5533 87.9908 83.9184 84.9808 83.9184 84.9808C83.9184 84.9808 85.8534 76.1656 86.9284 70.1455C88.0034 64.1254 88.4334 55.9552 81.5533 54.8802Z" fill="#EDEDED"/>
<path d="M78.1133 16.1794C78.1133 16.1794 69.5131 2.84916 88.2184 0.269109C101.764 -1.66593 110.579 7.14922 111.654 16.6094C112.729 25.6396 107.139 35.0998 103.054 38.9699C99.1836 40.0449 94.8836 39.3998 91.2285 37.4648C91.0135 35.0998 91.0135 32.5197 91.0135 29.9397C91.0135 29.9397 97.6786 15.9644 78.1133 16.1794Z" fill="#2B2A30"/>
</svg>
